solid OpenSCAD_Model
  facet normal -1 0 0
    outer loop
      vertex 0 0 0
      vertex 0 0 10.0385
      vertex 0 25 0
    endloop
  endfacet
  facet normal -1 0 0
    outer loop
      vertex 0 25 0
      vertex 0 0 10.0385
      vertex 0 25 10.0385
    endloop
  endfacet
  facet normal 0 -1 0
    outer loop
      vertex 36.2717 0 2.32869
      vertex 0 0 0
      vertex 60 0 0
    endloop
  endfacet
  facet normal 0 -1 0
    outer loop
      vertex 60 0 10.0385
      vertex 48.541 0 4.93661
      vertex 60 0 0
    endloop
  endfacet
  facet normal 0 -1 0
    outer loop
      vertex 23.7283 0 2.32869
      vertex 0 0 0
      vertex 36.2717 0 2.32869
    endloop
  endfacet
  facet normal 0 -1 0
    outer loop
      vertex 11.459 0 4.93661
      vertex 0 0 0
      vertex 23.7283 0 2.32869
    endloop
  endfacet
  facet normal 0 -1 0
    outer loop
      vertex 0 0 10.0385
      vertex 0 0 0
      vertex 11.459 0 4.93661
    endloop
  endfacet
  facet normal 0 -1 0
    outer loop
      vertex 48.541 0 4.93661
      vertex 36.2717 0 2.32869
      vertex 60 0 0
    endloop
  endfacet
  facet normal 0 0 -1
    outer loop
      vertex 31.9134 17.1194 0
      vertex 0 25 0
      vertex 60 25 0
    endloop
  endfacet
  facet normal 0 0 -1
    outer loop
      vertex 0 0 0
      vertex 0 25 0
      vertex 25 12.5 0
    endloop
  endfacet
  facet normal 0 0 -1
    outer loop
      vertex 0 0 0
      vertex 25 12.5 0
      vertex 25.3806 10.5866 0
    endloop
  endfacet
  facet normal 0 0 -1
    outer loop
      vertex 0 0 0
      vertex 25.3806 10.5866 0
      vertex 26.4645 8.96447 0
    endloop
  endfacet
  facet normal 0 0 -1
    outer loop
      vertex 0 0 0
      vertex 26.4645 8.96447 0
      vertex 28.0866 7.8806 0
    endloop
  endfacet
  facet normal 0 0 -1
    outer loop
      vertex 0 0 0
      vertex 28.0866 7.8806 0
      vertex 60 0 0
    endloop
  endfacet
  facet normal 0 0 -1
    outer loop
      vertex 28.0866 7.8806 0
      vertex 30 7.5 0
      vertex 60 0 0
    endloop
  endfacet
  facet normal 0 0 -1
    outer loop
      vertex 33.5355 8.96447 0
      vertex 60 0 0
      vertex 31.9134 7.8806 0
    endloop
  endfacet
  facet normal 0 0 -1
    outer loop
      vertex 34.6194 10.5866 0
      vertex 60 0 0
      vertex 33.5355 8.96447 0
    endloop
  endfacet
  facet normal 0 0 -1
    outer loop
      vertex 28.0866 17.1194 0
      vertex 0 25 0
      vertex 30 17.5 0
    endloop
  endfacet
  facet normal 0 0 -1
    outer loop
      vertex 60 0 0
      vertex 34.6194 10.5866 0
      vertex 60 25 0
    endloop
  endfacet
  facet normal 0 0 -1
    outer loop
      vertex 34.6194 10.5866 0
      vertex 35 12.5 0
      vertex 60 25 0
    endloop
  endfacet
  facet normal 0 0 -1
    outer loop
      vertex 25.3806 14.4134 0
      vertex 0 25 0
      vertex 26.4645 16.0355 0
    endloop
  endfacet
  facet normal 0 0 -1
    outer loop
      vertex 35 12.5 0
      vertex 34.6194 14.4134 0
      vertex 60 25 0
    endloop
  endfacet
  facet normal 0 0 -1
    outer loop
      vertex 26.4645 16.0355 0
      vertex 0 25 0
      vertex 28.0866 17.1194 0
    endloop
  endfacet
  facet normal 0 0 -1
    outer loop
      vertex 34.6194 14.4134 0
      vertex 33.5355 16.0355 0
      vertex 60 25 0
    endloop
  endfacet
  facet normal 0 0 -1
    outer loop
      vertex 30 17.5 0
      vertex 0 25 0
      vertex 31.9134 17.1194 0
    endloop
  endfacet
  facet normal 0 0 -1
    outer loop
      vertex 33.5355 16.0355 0
      vertex 31.9134 17.1194 0
      vertex 60 25 0
    endloop
  endfacet
  facet normal 0 0 -1
    outer loop
      vertex 25 12.5 0
      vertex 0 25 0
      vertex 25.3806 14.4134 0
    endloop
  endfacet
  facet normal 0 0 -1
    outer loop
      vertex 31.9134 7.8806 0
      vertex 60 0 0
      vertex 30 7.5 0
    endloop
  endfacet
  facet normal 0 1 0
    outer loop
      vertex 0 25 0
      vertex 0 25 10.0385
      vertex 11.459 25 4.93661
    endloop
  endfacet
  facet normal 0 1 0
    outer loop
      vertex 0 25 0
      vertex 11.459 25 4.93661
      vertex 23.7283 25 2.32869
    endloop
  endfacet
  facet normal 0 1 0
    outer loop
      vertex 0 25 0
      vertex 23.7283 25 2.32869
      vertex 60 25 0
    endloop
  endfacet
  facet normal 0 1 0
    outer loop
      vertex 23.7283 25 2.32869
      vertex 36.2717 25 2.32869
      vertex 60 25 0
    endloop
  endfacet
  facet normal 0 1 0
    outer loop
      vertex 60 25 0
      vertex 48.541 25 4.93661
      vertex 60 25 10.0385
    endloop
  endfacet
  facet normal 0 1 0
    outer loop
      vertex 48.541 25 4.93661
      vertex 60 25 0
      vertex 36.2717 25 2.32869
    endloop
  endfacet
  facet normal 0.406737 2.02848e-16 0.913545
    outer loop
      vertex 11.459 0 4.93661
      vertex 11.459 25 4.93661
      vertex 0 25 10.0385
    endloop
  endfacet
  facet normal 0.406737 2.02848e-16 0.913545
    outer loop
      vertex 0 0 10.0385
      vertex 11.459 0 4.93661
      vertex 0 25 10.0385
    endloop
  endfacet
  facet normal 0.207912 2.17192e-16 0.978148
    outer loop
      vertex 23.7283 0 2.32869
      vertex 23.7283 25 2.32869
      vertex 11.459 25 4.93661
    endloop
  endfacet
  facet normal 0.207912 2.17192e-16 0.978148
    outer loop
      vertex 11.459 0 4.93661
      vertex 23.7283 0 2.32869
      vertex 11.459 25 4.93661
    endloop
  endfacet
  facet normal 0 2.22045e-16 1
    outer loop
      vertex 28.0866 17.1194 2.32869
      vertex 36.2717 25 2.32869
      vertex 23.7283 25 2.32869
    endloop
  endfacet
  facet normal 0 2.22045e-16 1
    outer loop
      vertex 35 12.5 2.32869
      vertex 34.6194 10.5866 2.32869
      vertex 36.2717 0 2.32869
    endloop
  endfacet
  facet normal 0 2.22045e-16 1
    outer loop
      vertex 23.7283 0 2.32869
      vertex 25 12.5 2.32869
      vertex 23.7283 25 2.32869
    endloop
  endfacet
  facet normal 0 2.22045e-16 1
    outer loop
      vertex 25 12.5 2.32869
      vertex 25.3806 14.4134 2.32869
      vertex 23.7283 25 2.32869
    endloop
  endfacet
  facet normal 0 2.22045e-16 1
    outer loop
      vertex 25.3806 14.4134 2.32869
      vertex 26.4645 16.0355 2.32869
      vertex 23.7283 25 2.32869
    endloop
  endfacet
  facet normal 0 2.22045e-16 1
    outer loop
      vertex 30 7.5 2.32869
      vertex 28.0866 7.8806 2.32869
      vertex 36.2717 0 2.32869
    endloop
  endfacet
  facet normal 0 2.22045e-16 1
    outer loop
      vertex 30 17.5 2.32869
      vertex 36.2717 25 2.32869
      vertex 28.0866 17.1194 2.32869
    endloop
  endfacet
  facet normal 0 2.22045e-16 1
    outer loop
      vertex 31.9134 17.1194 2.32869
      vertex 36.2717 25 2.32869
      vertex 30 17.5 2.32869
    endloop
  endfacet
  facet normal 0 2.22045e-16 1
    outer loop
      vertex 33.5355 16.0355 2.32869
      vertex 36.2717 25 2.32869
      vertex 31.9134 17.1194 2.32869
    endloop
  endfacet
  facet normal 0 2.22045e-16 1
    outer loop
      vertex 34.6194 14.4134 2.32869
      vertex 36.2717 25 2.32869
      vertex 33.5355 16.0355 2.32869
    endloop
  endfacet
  facet normal 0 2.22045e-16 1
    outer loop
      vertex 35 12.5 2.32869
      vertex 36.2717 25 2.32869
      vertex 34.6194 14.4134 2.32869
    endloop
  endfacet
  facet normal 0 2.22045e-16 1
    outer loop
      vertex 36.2717 0 2.32869
      vertex 36.2717 25 2.32869
      vertex 35 12.5 2.32869
    endloop
  endfacet
  facet normal 0 2.22045e-16 1
    outer loop
      vertex 33.5355 8.96447 2.32869
      vertex 31.9134 7.8806 2.32869
      vertex 36.2717 0 2.32869
    endloop
  endfacet
  facet normal 0 2.22045e-16 1
    outer loop
      vertex 31.9134 7.8806 2.32869
      vertex 30 7.5 2.32869
      vertex 36.2717 0 2.32869
    endloop
  endfacet
  facet normal 0 2.22045e-16 1
    outer loop
      vertex 34.6194 10.5866 2.32869
      vertex 33.5355 8.96447 2.32869
      vertex 36.2717 0 2.32869
    endloop
  endfacet
  facet normal 0 2.22045e-16 1
    outer loop
      vertex 23.7283 0 2.32869
      vertex 36.2717 0 2.32869
      vertex 28.0866 7.8806 2.32869
    endloop
  endfacet
  facet normal 0 2.22045e-16 1
    outer loop
      vertex 23.7283 0 2.32869
      vertex 28.0866 7.8806 2.32869
      vertex 26.4645 8.96447 2.32869
    endloop
  endfacet
  facet normal 0 2.22045e-16 1
    outer loop
      vertex 23.7283 0 2.32869
      vertex 25.3806 10.5866 2.32869
      vertex 25 12.5 2.32869
    endloop
  endfacet
  facet normal 0 2.22045e-16 1
    outer loop
      vertex 23.7283 0 2.32869
      vertex 26.4645 8.96447 2.32869
      vertex 25.3806 10.5866 2.32869
    endloop
  endfacet
  facet normal 0 2.22045e-16 1
    outer loop
      vertex 26.4645 16.0355 2.32869
      vertex 28.0866 17.1194 2.32869
      vertex 23.7283 25 2.32869
    endloop
  endfacet
  facet normal -0.207912 2.17192e-16 0.978148
    outer loop
      vertex 48.541 0 4.93661
      vertex 48.541 25 4.93661
      vertex 36.2717 25 2.32869
    endloop
  endfacet
  facet normal -0.207912 2.17192e-16 0.978148
    outer loop
      vertex 36.2717 0 2.32869
      vertex 48.541 0 4.93661
      vertex 36.2717 25 2.32869
    endloop
  endfacet
  facet normal -0.406737 2.02848e-16 0.913545
    outer loop
      vertex 60 0 10.0385
      vertex 60 25 10.0385
      vertex 48.541 25 4.93661
    endloop
  endfacet
  facet normal -0.406737 2.02848e-16 0.913545
    outer loop
      vertex 48.541 0 4.93661
      vertex 60 0 10.0385
      vertex 48.541 25 4.93661
    endloop
  endfacet
  facet normal 1 0 0
    outer loop
      vertex 60 0 10.0385
      vertex 60 0 0
      vertex 60 25 0
    endloop
  endfacet
  facet normal 1 0 0
    outer loop
      vertex 60 25 10.0385
      vertex 60 0 10.0385
      vertex 60 25 0
    endloop
  endfacet
  facet normal 0.980785 0.19509 0
    outer loop
      vertex 25 12.5 2.32869
      vertex 25.3806 10.5866 2.32869
      vertex 25.3806 10.5866 0
    endloop
  endfacet
  facet normal 0.980785 0.19509 0
    outer loop
      vertex 25 12.5 0
      vertex 25 12.5 2.32869
      vertex 25.3806 10.5866 0
    endloop
  endfacet
  facet normal 0.980785 -0.19509 0
    outer loop
      vertex 25.3806 14.4134 0
      vertex 25.3806 14.4134 2.32869
      vertex 25 12.5 2.32869
    endloop
  endfacet
  facet normal 0.980785 -0.19509 0
    outer loop
      vertex 25 12.5 0
      vertex 25.3806 14.4134 0
      vertex 25 12.5 2.32869
    endloop
  endfacet
  facet normal 0.83147 -0.55557 0
    outer loop
      vertex 26.4645 16.0355 0
      vertex 26.4645 16.0355 2.32869
      vertex 25.3806 14.4134 2.32869
    endloop
  endfacet
  facet normal 0.83147 -0.55557 0
    outer loop
      vertex 25.3806 14.4134 0
      vertex 26.4645 16.0355 0
      vertex 25.3806 14.4134 2.32869
    endloop
  endfacet
  facet normal 0.55557 -0.83147 0
    outer loop
      vertex 28.0866 17.1194 0
      vertex 28.0866 17.1194 2.32869
      vertex 26.4645 16.0355 2.32869
    endloop
  endfacet
  facet normal 0.55557 -0.83147 0
    outer loop
      vertex 26.4645 16.0355 0
      vertex 28.0866 17.1194 0
      vertex 26.4645 16.0355 2.32869
    endloop
  endfacet
  facet normal 0.19509 -0.980785 0
    outer loop
      vertex 30 17.5 0
      vertex 30 17.5 2.32869
      vertex 28.0866 17.1194 2.32869
    endloop
  endfacet
  facet normal 0.19509 -0.980785 0
    outer loop
      vertex 28.0866 17.1194 0
      vertex 30 17.5 0
      vertex 28.0866 17.1194 2.32869
    endloop
  endfacet
  facet normal -0.19509 -0.980785 0
    outer loop
      vertex 31.9134 17.1194 0
      vertex 31.9134 17.1194 2.32869
      vertex 30 17.5 2.32869
    endloop
  endfacet
  facet normal -0.19509 -0.980785 0
    outer loop
      vertex 30 17.5 0
      vertex 31.9134 17.1194 0
      vertex 30 17.5 2.32869
    endloop
  endfacet
  facet normal -0.55557 -0.83147 0
    outer loop
      vertex 33.5355 16.0355 0
      vertex 33.5355 16.0355 2.32869
      vertex 31.9134 17.1194 2.32869
    endloop
  endfacet
  facet normal -0.55557 -0.83147 0
    outer loop
      vertex 31.9134 17.1194 0
      vertex 33.5355 16.0355 0
      vertex 31.9134 17.1194 2.32869
    endloop
  endfacet
  facet normal -0.83147 -0.55557 0
    outer loop
      vertex 34.6194 14.4134 2.32869
      vertex 33.5355 16.0355 2.32869
      vertex 34.6194 14.4134 0
    endloop
  endfacet
  facet normal -0.83147 -0.55557 0
    outer loop
      vertex 34.6194 14.4134 0
      vertex 33.5355 16.0355 2.32869
      vertex 33.5355 16.0355 0
    endloop
  endfacet
  facet normal -0.980785 -0.19509 0
    outer loop
      vertex 35 12.5 2.32869
      vertex 34.6194 14.4134 2.32869
      vertex 35 12.5 0
    endloop
  endfacet
  facet normal -0.980785 -0.19509 0
    outer loop
      vertex 35 12.5 0
      vertex 34.6194 14.4134 2.32869
      vertex 34.6194 14.4134 0
    endloop
  endfacet
  facet normal -0.980785 0.19509 0
    outer loop
      vertex 35 12.5 2.32869
      vertex 35 12.5 0
      vertex 34.6194 10.5866 2.32869
    endloop
  endfacet
  facet normal -0.980785 0.19509 0
    outer loop
      vertex 34.6194 10.5866 2.32869
      vertex 35 12.5 0
      vertex 34.6194 10.5866 0
    endloop
  endfacet
  facet normal -0.83147 0.55557 0
    outer loop
      vertex 34.6194 10.5866 2.32869
      vertex 34.6194 10.5866 0
      vertex 33.5355 8.96447 2.32869
    endloop
  endfacet
  facet normal -0.83147 0.55557 0
    outer loop
      vertex 33.5355 8.96447 2.32869
      vertex 34.6194 10.5866 0
      vertex 33.5355 8.96447 0
    endloop
  endfacet
  facet normal -0.55557 0.83147 0
    outer loop
      vertex 33.5355 8.96447 2.32869
      vertex 33.5355 8.96447 0
      vertex 31.9134 7.8806 2.32869
    endloop
  endfacet
  facet normal -0.55557 0.83147 0
    outer loop
      vertex 31.9134 7.8806 2.32869
      vertex 33.5355 8.96447 0
      vertex 31.9134 7.8806 0
    endloop
  endfacet
  facet normal -0.19509 0.980785 0
    outer loop
      vertex 31.9134 7.8806 2.32869
      vertex 31.9134 7.8806 0
      vertex 30 7.5 2.32869
    endloop
  endfacet
  facet normal -0.19509 0.980785 0
    outer loop
      vertex 30 7.5 2.32869
      vertex 31.9134 7.8806 0
      vertex 30 7.5 0
    endloop
  endfacet
  facet normal 0.19509 0.980785 0
    outer loop
      vertex 30 7.5 2.32869
      vertex 30 7.5 0
      vertex 28.0866 7.8806 2.32869
    endloop
  endfacet
  facet normal 0.19509 0.980785 0
    outer loop
      vertex 28.0866 7.8806 2.32869
      vertex 30 7.5 0
      vertex 28.0866 7.8806 0
    endloop
  endfacet
  facet normal 0.55557 0.83147 0
    outer loop
      vertex 28.0866 7.8806 2.32869
      vertex 28.0866 7.8806 0
      vertex 26.4645 8.96447 2.32869
    endloop
  endfacet
  facet normal 0.55557 0.83147 0
    outer loop
      vertex 26.4645 8.96447 2.32869
      vertex 28.0866 7.8806 0
      vertex 26.4645 8.96447 0
    endloop
  endfacet
  facet normal 0.83147 0.55557 0
    outer loop
      vertex 25.3806 10.5866 2.32869
      vertex 26.4645 8.96447 2.32869
      vertex 26.4645 8.96447 0
    endloop
  endfacet
  facet normal 0.83147 0.55557 0
    outer loop
      vertex 25.3806 10.5866 0
      vertex 25.3806 10.5866 2.32869
      vertex 26.4645 8.96447 0
    endloop
  endfacet
endsolid OpenSCAD_Model
